<svg width="637" height="309" viewBox="0 0 637 309" fill="none" xmlns="http://www.w3.org/2000/svg">
<path fill-rule="evenodd" clip-rule="evenodd" d="M249.031 235.806L136.273 307.624C135.312 308.179 133.912 308.169 132.944 307.624C89.3043 283.057 46.0675 257.78 2.83365 232.504C1.87294 231.95 1.18184 230.732 1.16949 229.622C0.625534 179.545 1.16949 79.3828 1.16949 79.3828C1.16949 78.273 1.87863 77.0655 2.83365 76.5006C45.9289 50.9905 89.4391 26.1848 132.944 1.38099C133.974 0.785765 135.243 0.785765 136.273 1.38099L254.75 76.5006C254.75 76.5006 254.769 76.512 254.778 76.5177C261.955 80.6586 261.288 87.0305 241.465 76.5177L134.609 8.10596L7.82612 81.3042V227.701L134.609 300.899L235.718 235.806C257.043 222.464 261.274 228.325 249.031 235.806Z" fill="white"/>
<path d="M73.8041 133.983H100.887C100.887 136.768 100.772 139.298 100.539 141.573C100.308 143.847 99.8425 145.958 99.1471 147.908C98.1715 150.646 96.8489 153.071 95.178 155.183C93.5071 157.295 91.5469 159.059 89.295 160.475C87.0444 161.89 84.5727 162.97 81.8799 163.713C79.1884 164.454 76.3568 164.826 73.3864 164.826C69.3016 164.826 65.5766 164.154 62.2116 162.807C58.8466 161.461 55.9572 159.57 53.5446 157.133C51.1307 154.696 49.2503 151.772 47.9045 148.361C46.5588 144.949 45.8853 141.178 45.8853 137.047C45.8853 132.962 46.5472 129.214 47.8698 125.803C49.1924 122.392 51.0729 119.479 53.5099 117.065C55.9456 114.651 58.8813 112.772 62.317 111.425C65.7514 110.079 69.5805 109.407 73.8041 109.407C79.2809 109.407 84.0855 110.59 88.2166 112.957C92.3477 115.325 95.6189 118.992 98.0327 123.957L85.0829 129.318C83.876 126.441 82.3105 124.375 80.3837 123.122C78.457 121.869 76.2642 121.243 73.8041 121.243C71.7617 121.243 69.9057 121.626 68.2347 122.392C66.5638 123.157 65.1358 124.248 63.9533 125.663C62.7695 127.079 61.8415 128.785 61.1679 130.781C60.4944 132.777 60.1576 135.005 60.1576 137.465C60.1576 139.692 60.4481 141.758 61.0291 143.662C61.6088 145.564 62.479 147.212 63.6396 148.604C64.8003 149.997 66.2386 151.075 67.9558 151.841C69.673 152.607 71.6691 152.991 73.9429 152.991C75.2899 152.991 76.5894 152.84 77.8426 152.538C79.0958 152.236 80.2218 151.749 81.2192 151.075C82.2166 150.403 83.0405 149.533 83.6909 148.465C84.34 147.398 84.7809 146.097 85.0135 144.566H73.8041V133.983Z" fill="white"/>
<path d="M139.388 122.427H123.166V131.199H138.484V142.756H123.166V151.807H139.388V163.365H109.521V110.869H139.388V122.427Z" fill="white"/>
<path d="M149.206 163.365V110.869H162.851L188.055 142.965V110.869H201.631V163.365H188.055L162.851 131.269V163.365H149.206Z" fill="white"/>
<path d="M266.38 122.427H249.95V131.199H264.919V142.756H249.95V163.365H236.303V110.869H266.38V122.427Z" fill="white"/>
<path d="M300.913 143.87L294.786 126.395L288.659 143.87H300.913ZM304.533 154.244H285.039L281.906 163.365H267.354L287.336 110.869H302.236L322.218 163.365H307.667L304.533 154.244Z" fill="white"/>
<path d="M364.061 128.414C360.904 124.561 357.005 122.635 352.364 122.635C350.322 122.635 348.431 123.006 346.689 123.749C344.949 124.492 343.453 125.501 342.2 126.777C340.946 128.054 339.959 129.574 339.241 131.338C338.521 133.101 338.161 135.005 338.161 137.047C338.161 139.136 338.521 141.061 339.241 142.826C339.959 144.59 340.958 146.12 342.234 147.421C343.511 148.721 345.007 149.741 346.724 150.484C348.442 151.227 350.299 151.598 352.295 151.598C356.657 151.598 360.58 149.741 364.061 146.028V162.181L362.669 162.668C360.58 163.411 358.63 163.956 356.82 164.304C355.009 164.652 353.223 164.826 351.459 164.826C347.838 164.826 344.369 164.142 341.051 162.772C337.732 161.403 334.808 159.476 332.278 156.993C329.749 154.511 327.718 151.562 326.186 148.151C324.655 144.74 323.889 141.015 323.889 136.978C323.889 132.939 324.643 129.237 326.151 125.872C327.66 122.507 329.679 119.606 332.209 117.169C334.738 114.732 337.674 112.83 341.016 111.46C344.358 110.091 347.862 109.407 351.529 109.407C353.617 109.407 355.671 109.627 357.691 110.068C359.71 110.509 361.833 111.194 364.061 112.122V128.414Z" fill="white"/>
<path d="M392.606 122.427V163.365H378.96V122.427H367.751V110.869H403.815V122.427H392.606Z" fill="white"/>
<path d="M421.29 137.117C421.29 139.205 421.685 141.132 422.474 142.895C423.263 144.659 424.33 146.191 425.676 147.491C427.023 148.79 428.589 149.799 430.377 150.519C432.163 151.239 434.055 151.598 436.05 151.598C438.046 151.598 439.938 151.239 441.725 150.519C443.511 149.799 445.09 148.79 446.459 147.491C447.829 146.191 448.907 144.659 449.696 142.895C450.486 141.132 450.88 139.205 450.88 137.117C450.88 135.028 450.486 133.101 449.696 131.338C448.907 129.574 447.829 128.042 446.459 126.743C445.09 125.443 443.511 124.434 441.725 123.714C439.938 122.995 438.046 122.635 436.05 122.635C434.055 122.635 432.163 122.995 430.377 123.714C428.589 124.434 427.023 125.443 425.676 126.743C424.33 128.042 423.263 129.574 422.474 131.338C421.685 133.101 421.29 135.028 421.29 137.117ZM407.018 137.117C407.018 133.218 407.738 129.586 409.176 126.221C410.614 122.856 412.611 119.92 415.163 117.414C417.716 114.907 420.769 112.946 424.319 111.531C427.87 110.114 431.78 109.407 436.05 109.407C440.274 109.407 444.173 110.114 447.747 111.531C451.321 112.946 454.396 114.907 456.971 117.414C459.549 119.92 461.555 122.856 462.995 126.221C464.433 129.586 465.153 133.218 465.153 137.117C465.153 141.015 464.433 144.647 462.995 148.012C461.555 151.377 459.549 154.313 456.971 156.82C454.396 159.326 451.321 161.287 447.747 162.703C444.173 164.119 440.274 164.826 436.05 164.826C431.78 164.826 427.87 164.119 424.319 162.703C420.769 161.287 417.716 159.326 415.163 156.82C412.611 154.313 410.614 151.377 409.176 148.012C407.738 144.647 407.018 141.015 407.018 137.117Z" fill="white"/>
<path d="M487.431 134.332H490.007C492.7 134.332 494.765 133.775 496.204 132.661C497.643 131.548 498.362 129.946 498.362 127.857C498.362 125.769 497.643 124.167 496.204 123.053C494.765 121.94 492.7 121.382 490.007 121.382H487.431V134.332ZM517.439 163.365H500.45L487.431 143.174V163.365H473.786V110.869H495.02C497.944 110.869 500.498 111.298 502.679 112.157C504.86 113.016 506.659 114.188 508.075 115.674C509.49 117.158 510.558 118.876 511.277 120.825C511.997 122.775 512.357 124.864 512.357 127.091C512.357 131.082 511.394 134.32 509.467 136.803C507.54 139.287 504.699 140.969 500.939 141.851L517.439 163.365Z" fill="white"/>
<path d="M521.337 156.681C521.337 155.566 521.547 154.511 521.965 153.512C522.382 152.515 522.962 151.645 523.705 150.902C524.448 150.159 525.318 149.579 526.316 149.161C527.314 148.744 528.37 148.534 529.484 148.534C530.598 148.534 531.654 148.744 532.652 149.161C533.65 149.579 534.52 150.159 535.263 150.902C536.006 151.645 536.585 152.515 537.003 153.512C537.421 154.511 537.629 155.566 537.629 156.681C537.629 157.794 537.421 158.85 537.003 159.848C536.585 160.846 536.006 161.717 535.263 162.46C534.52 163.201 533.65 163.782 532.652 164.2C531.654 164.618 530.598 164.826 529.484 164.826C528.37 164.826 527.314 164.618 526.316 164.2C525.318 163.782 524.448 163.201 523.705 162.46C522.962 161.717 522.382 160.846 521.965 159.848C521.547 158.85 521.337 157.794 521.337 156.681Z" fill="white"/>
<path d="M558.238 127.647V147.768C558.238 152.178 560.373 154.383 564.643 154.383C568.913 154.383 571.048 152.178 571.048 147.768V127.647H583.651V150.205C583.651 155.033 582.061 158.652 578.881 161.066C575.702 163.48 570.955 164.687 564.643 164.687C558.331 164.687 553.585 163.48 550.405 161.066C547.225 158.652 545.637 155.033 545.637 150.205V127.647H558.238Z" fill="white"/>
<path d="M604.815 105.577V140.528L618.043 127.648H635.309L617.416 144.149L636.354 163.365H618.669L604.815 148.813V163.365H592.213V105.577H604.815Z" fill="white"/>
<path d="M45.8857 205.636V178.428H57.7731C60.7145 178.428 63.2992 178.995 65.5258 180.131C67.7532 181.266 69.4926 182.849 70.7426 184.882C71.9933 186.915 72.6183 189.297 72.6183 192.029C72.6183 194.762 71.9933 197.145 70.7426 199.179C69.4926 201.214 67.7532 202.798 65.5258 203.933C63.2992 205.068 60.7145 205.636 57.7731 205.636H45.8857ZM50.9303 201.361H57.5191C59.5613 201.361 61.3266 200.974 62.817 200.199C64.3066 199.425 65.4648 198.337 66.2907 196.937C67.1174 195.537 67.53 193.901 67.53 192.029C67.53 190.136 67.1174 188.495 66.2907 187.108C65.4648 185.72 64.3066 184.639 62.817 183.865C61.3266 183.09 59.5613 182.703 57.5191 182.703H50.9303V201.361Z" fill="#FF8D00"/>
<path d="M77.508 205.636V184.88H82.3668V205.636H77.508ZM79.9571 181.459C79.0501 181.459 78.3053 181.174 77.7219 180.604C77.1392 180.034 76.8472 179.347 76.8472 178.544C76.8472 177.715 77.1392 177.022 77.7219 176.465C78.3053 175.907 79.0501 175.629 79.9571 175.629C80.8642 175.629 81.609 175.894 82.1917 176.425C82.7751 176.957 83.0664 177.624 83.0664 178.427C83.0664 179.283 82.7815 180.002 82.211 180.584C81.6413 181.168 80.89 181.459 79.9571 181.459Z" fill="#FF8D00"/>
<path d="M93.6562 205.889C91.9096 205.889 90.2405 205.666 88.6475 205.221C87.0545 204.776 85.793 204.232 84.8623 203.587L86.7316 199.894C87.6515 200.49 88.7623 200.979 90.0626 201.361C91.3636 201.743 92.6602 201.934 93.9518 201.934C95.4882 201.934 96.5968 201.731 97.2771 201.323C97.9574 200.916 98.2975 200.355 98.2975 199.637C98.2975 199.078 98.0657 198.648 97.6029 198.348C97.14 198.048 96.5287 197.819 95.7695 197.662C95.0103 197.506 94.1736 197.363 93.2601 197.235C92.3473 197.108 91.4331 196.932 90.5182 196.711C89.6033 196.489 88.7659 196.167 88.0067 195.746C87.2468 195.324 86.6362 194.747 86.1733 194.013C85.7098 193.279 85.4787 192.314 85.4787 191.119C85.4787 189.817 85.8526 188.678 86.6017 187.702C87.3502 186.727 88.4043 185.971 89.7641 185.434C91.1246 184.897 92.737 184.629 94.602 184.629C95.9984 184.629 97.412 184.788 98.8428 185.108C100.274 185.426 101.456 185.872 102.389 186.446L100.521 190.138C99.5461 189.543 98.5558 189.135 97.5512 188.914C96.5473 188.694 95.5578 188.584 94.5826 188.584C93.108 188.584 92.0115 188.8 91.294 189.234C90.5764 189.666 90.2176 190.227 90.2176 190.915C90.2176 191.519 90.4494 191.978 90.9122 192.291C91.3757 192.605 91.9864 192.851 92.7463 193.03C93.5055 193.21 94.3415 193.363 95.255 193.491C96.1684 193.619 97.0812 193.795 97.9947 194.018C98.9074 194.242 99.7441 194.559 100.503 194.968C101.263 195.378 101.874 195.944 102.337 196.668C102.8 197.39 103.031 198.337 103.031 199.51C103.031 200.802 102.652 201.926 101.894 202.881C101.136 203.836 100.059 204.575 98.6635 205.101C97.2685 205.627 95.5994 205.889 93.6562 205.889Z" fill="#FF8D00"/>
<path d="M113.021 205.889C110.747 205.889 108.986 205.301 107.736 204.126C106.488 202.95 105.863 201.215 105.863 198.918V180.304H110.721V198.806C110.721 199.793 110.975 200.557 111.484 201.101C111.991 201.644 112.707 201.916 113.631 201.916C114.699 201.916 115.597 201.631 116.324 201.062L117.713 204.525C117.129 204.981 116.421 205.322 115.588 205.549C114.755 205.776 113.899 205.889 113.021 205.889ZM102.474 188.908V185.033H116.293V188.908H102.474Z" fill="#FF8D00"/>
<path d="M120.311 205.636V184.882H124.945V190.585L124.397 188.927C124.999 187.517 125.974 186.448 127.32 185.72C128.666 184.993 130.326 184.629 132.298 184.629V189.255C132.09 189.226 131.899 189.204 131.725 189.189C131.551 189.175 131.376 189.168 131.2 189.168C129.361 189.168 127.895 189.703 126.805 190.773C125.715 191.843 125.169 193.446 125.169 195.581V205.636H120.311Z" fill="#FF8D00"/>
<path d="M134.801 205.636V184.88H139.659V205.636H134.801ZM137.249 181.459C136.342 181.459 135.597 181.174 135.014 180.604C134.431 180.034 134.14 179.347 134.14 178.544C134.14 177.715 134.431 177.022 135.014 176.465C135.597 175.907 136.342 175.629 137.249 175.629C138.156 175.629 138.901 175.894 139.484 176.425C140.067 176.957 140.359 177.624 140.359 178.427C140.359 179.283 140.073 180.002 139.504 180.584C138.934 181.168 138.182 181.459 137.249 181.459Z" fill="#FF8D00"/>
<path d="M156.04 205.889C154.276 205.889 152.703 205.506 151.319 204.739C149.936 203.974 148.854 202.803 148.075 201.226C147.295 199.65 146.905 197.66 146.905 195.257C146.905 192.833 147.309 190.84 148.116 189.276C148.923 187.714 150.019 186.548 151.405 185.78C152.79 185.013 154.335 184.629 156.04 184.629C158.064 184.629 159.864 185.069 161.441 185.95C163.019 186.832 164.262 188.067 165.173 189.655C166.083 191.244 166.538 193.111 166.538 195.257C166.538 197.401 166.083 199.268 165.173 200.857C164.262 202.446 163.019 203.683 161.441 204.565C159.864 205.448 158.064 205.889 156.04 205.889ZM144.526 205.636V176.795H149.385V189.716L148.996 195.222L149.16 200.729V205.636H144.526ZM155.463 201.755C156.63 201.755 157.676 201.492 158.6 200.967C159.525 200.442 160.261 199.687 160.808 198.703C161.356 197.718 161.63 196.569 161.63 195.257C161.63 193.918 161.356 192.763 160.808 191.793C160.261 190.824 159.525 190.076 158.6 189.551C157.676 189.025 156.63 188.762 155.463 188.762C154.297 188.762 153.252 189.025 152.327 189.551C151.402 190.076 150.666 190.824 150.119 191.793C149.57 192.763 149.296 193.918 149.296 195.257C149.296 196.569 149.57 197.718 150.119 198.703C150.666 199.687 151.402 200.442 152.327 200.967C153.252 201.492 154.297 201.755 155.463 201.755Z" fill="#FF8D00"/>
<path d="M179.401 205.889C177.626 205.889 176.065 205.562 174.716 204.909C173.367 204.256 172.315 203.249 171.56 201.886C170.805 200.524 170.428 198.802 170.428 196.722V184.882H175.286V196.086C175.286 197.95 175.713 199.337 176.567 200.249C177.42 201.161 178.624 201.617 180.178 201.617C181.305 201.617 182.294 201.385 183.142 200.921C183.99 200.458 184.652 199.761 185.129 198.834C185.606 197.905 185.844 196.754 185.844 195.379V184.882H190.703V205.636H186.069V200.036L186.895 201.741C186.188 203.083 185.164 204.11 183.823 204.822C182.482 205.533 181.008 205.889 179.401 205.889Z" fill="#FF8D00"/>
<path d="M204.207 205.889C201.933 205.889 200.172 205.301 198.922 204.126C197.674 202.95 197.049 201.215 197.049 198.918V180.304H201.907V198.806C201.907 199.793 202.162 200.557 202.67 201.101C203.177 201.644 203.893 201.916 204.817 201.916C205.885 201.916 206.783 201.631 207.51 201.062L208.899 204.525C208.315 204.981 207.607 205.322 206.774 205.549C205.941 205.776 205.085 205.889 204.207 205.889ZM193.66 188.908V185.033H207.479V188.908H193.66Z" fill="#FF8D00"/>
<path d="M211.489 205.636V184.88H216.347V205.636H211.489ZM213.937 181.459C213.03 181.459 212.285 181.174 211.702 180.604C211.119 180.034 210.828 179.347 210.828 178.544C210.828 177.715 211.119 177.022 211.702 176.465C212.285 175.907 213.03 175.629 213.937 175.629C214.844 175.629 215.589 175.894 216.172 176.425C216.755 176.957 217.046 177.624 217.046 178.427C217.046 179.283 216.761 180.002 216.192 180.584C215.621 181.168 214.87 181.459 213.937 181.459Z" fill="#FF8D00"/>
<path d="M230.552 205.889C228.423 205.889 226.525 205.433 224.859 204.521C223.193 203.609 221.88 202.35 220.919 200.744C219.958 199.138 219.478 197.306 219.478 195.25C219.478 193.172 219.96 191.336 220.926 189.745C221.891 188.152 223.201 186.902 224.858 185.993C226.515 185.084 228.413 184.629 230.552 184.629C232.691 184.629 234.596 185.083 236.267 185.991C237.939 186.899 239.249 188.147 240.2 189.736C241.151 191.325 241.626 193.164 241.626 195.251C241.626 197.315 241.153 199.148 240.204 200.75C239.256 202.352 237.943 203.609 236.263 204.521C234.584 205.433 232.68 205.889 230.552 205.889ZM230.552 201.755C231.742 201.755 232.799 201.493 233.723 200.967C234.647 200.442 235.378 199.687 235.914 198.703C236.45 197.718 236.719 196.568 236.719 195.253C236.719 193.916 236.45 192.763 235.914 191.793C235.378 190.824 234.647 190.076 233.723 189.551C232.799 189.025 231.747 188.762 230.569 188.762C229.391 188.762 228.34 189.025 227.415 189.551C226.491 190.076 225.755 190.824 225.207 191.793C224.659 192.763 224.385 193.916 224.385 195.253C224.385 196.568 224.659 197.718 225.207 198.703C225.755 199.687 226.49 200.442 227.413 200.967C228.336 201.493 229.382 201.755 230.552 201.755Z" fill="#FF8D00"/>
<path d="M256.682 184.629C258.36 184.629 259.848 184.954 261.147 185.603C262.446 186.253 263.472 187.249 264.225 188.591C264.978 189.935 265.355 191.653 265.355 193.746V205.636H260.496V194.381C260.496 192.541 260.066 191.167 259.205 190.26C258.343 189.354 257.127 188.901 255.557 188.901C254.419 188.901 253.412 189.132 252.534 189.596C251.657 190.06 250.979 190.749 250.501 191.665C250.022 192.58 249.783 193.738 249.783 195.139V205.636H244.924V184.882H249.558V190.492L248.732 188.771C249.449 187.436 250.503 186.411 251.892 185.699C253.282 184.986 254.879 184.629 256.682 184.629Z" fill="#FF8D00"/>
<path d="M293.37 205.636V201.426L293.12 200.55V193.195C293.12 191.775 292.69 190.669 291.829 189.877C290.969 189.084 289.668 188.688 287.927 188.688C286.765 188.688 285.624 188.871 284.504 189.236C283.384 189.602 282.429 190.101 281.639 190.732L279.754 187.208C280.863 186.363 282.19 185.722 283.734 185.285C285.278 184.848 286.88 184.629 288.538 184.629C291.537 184.629 293.861 185.349 295.508 186.79C297.155 188.23 297.979 190.455 297.979 193.464V205.636H293.37ZM286.871 205.889C285.293 205.889 283.921 205.624 282.755 205.096C281.589 204.568 280.691 203.833 280.061 202.892C279.431 201.951 279.116 200.883 279.116 199.688C279.116 198.517 279.398 197.469 279.963 196.544C280.527 195.619 281.444 194.882 282.713 194.334C283.981 193.785 285.66 193.511 287.75 193.511H293.772V196.732H288.101C286.446 196.732 285.331 197 284.757 197.535C284.183 198.07 283.896 198.725 283.896 199.502C283.896 200.378 284.247 201.074 284.95 201.589C285.653 202.105 286.621 202.363 287.856 202.363C289.061 202.363 290.137 202.094 291.082 201.555C292.027 201.017 292.706 200.218 293.12 199.157L293.943 202.066C293.471 203.285 292.634 204.227 291.433 204.892C290.231 205.557 288.711 205.889 286.871 205.889Z" fill="#FF8D00"/>
<path d="M314.674 184.629C316.352 184.629 317.84 184.954 319.139 185.603C320.438 186.253 321.464 187.249 322.217 188.591C322.971 189.935 323.348 191.653 323.348 193.746V205.636H318.489V194.381C318.489 192.541 318.058 191.167 317.197 190.26C316.335 189.354 315.12 188.901 313.549 188.901C312.412 188.901 311.404 189.132 310.527 189.596C309.649 190.06 308.971 190.749 308.492 191.665C308.014 192.58 307.775 193.738 307.775 195.139V205.636H302.916V184.882H307.55V190.492L306.725 188.771C307.442 187.436 308.494 186.411 309.884 185.699C311.274 184.986 312.87 184.629 314.674 184.629Z" fill="#FF8D00"/>
<path d="M337.667 205.889C335.669 205.889 333.875 205.448 332.285 204.565C330.695 203.683 329.445 202.446 328.535 200.857C327.624 199.268 327.169 197.401 327.169 195.257C327.169 193.111 327.624 191.244 328.535 189.655C329.445 188.067 330.695 186.832 332.285 185.95C333.875 185.069 335.669 184.629 337.667 184.629C339.397 184.629 340.949 185.013 342.321 185.78C343.693 186.548 344.783 187.714 345.591 189.276C346.398 190.84 346.801 192.833 346.801 195.257C346.801 197.66 346.411 199.65 345.632 201.226C344.853 202.803 343.777 203.974 342.407 204.739C341.035 205.506 339.456 205.889 337.667 205.889ZM338.243 201.755C339.41 201.755 340.455 201.492 341.38 200.967C342.304 200.442 343.04 199.687 343.588 198.703C344.136 197.718 344.41 196.569 344.41 195.257C344.41 193.918 344.136 192.763 343.588 191.793C343.04 190.824 342.304 190.076 341.38 189.551C340.455 189.025 339.41 188.762 338.243 188.762C337.077 188.762 336.031 189.025 335.107 189.551C334.183 190.076 333.446 190.824 332.898 191.793C332.351 192.763 332.076 193.918 332.076 195.257C332.076 196.569 332.351 197.718 332.898 198.703C333.446 199.687 334.183 200.442 335.107 200.967C336.031 201.492 337.077 201.755 338.243 201.755ZM344.546 205.636V200.729L344.711 195.222L344.322 189.716V176.795H349.181V205.636H344.546Z" fill="#FF8D00"/>
<path d="M370.655 205.636V182.698H361.638V178.428H384.718V182.698H375.7V205.636H370.655Z" fill="#FF8D00"/>
<path d="M385.396 205.636V184.882H390.03V190.585L389.481 188.927C390.084 187.517 391.059 186.448 392.405 185.72C393.751 184.993 395.411 184.629 397.383 184.629V189.255C397.175 189.226 396.984 189.204 396.81 189.189C396.636 189.175 396.461 189.168 396.285 189.168C394.446 189.168 392.98 189.703 391.89 190.773C390.8 191.843 390.254 193.446 390.254 195.581V205.636H385.396Z" fill="#FF8D00"/>
<path d="M411.103 205.636V201.426L410.854 200.55V193.195C410.854 191.775 410.423 190.669 409.563 189.877C408.702 189.084 407.402 188.688 405.66 188.688C404.498 188.688 403.357 188.871 402.237 189.236C401.118 189.602 400.163 190.101 399.373 190.732L397.488 187.208C398.596 186.363 399.923 185.722 401.467 185.285C403.011 184.848 404.613 184.629 406.271 184.629C409.271 184.629 411.594 185.349 413.241 186.79C414.889 188.23 415.712 190.455 415.712 193.464V205.636H411.103ZM404.604 205.889C403.027 205.889 401.654 205.624 400.488 205.096C399.322 204.568 398.424 203.833 397.794 202.892C397.165 201.951 396.85 200.883 396.85 199.688C396.85 198.517 397.132 197.469 397.696 196.544C398.26 195.619 399.177 194.882 400.446 194.334C401.715 193.785 403.394 193.511 405.483 193.511H411.505V196.732H405.834C404.179 196.732 403.065 197 402.49 197.535C401.916 198.07 401.629 198.725 401.629 199.502C401.629 200.378 401.98 201.074 402.684 201.589C403.386 202.105 404.355 202.363 405.589 202.363C406.795 202.363 407.87 202.094 408.815 201.555C409.76 201.017 410.44 200.218 410.854 199.157L411.676 202.066C411.204 203.285 410.367 204.227 409.166 204.892C407.965 205.557 406.444 205.889 404.604 205.889Z" fill="#FF8D00"/>
<path d="M420.641 205.636V184.88H425.499V205.636H420.641ZM423.09 181.459C422.183 181.459 421.438 181.174 420.854 180.604C420.272 180.034 419.98 179.347 419.98 178.544C419.98 177.715 420.272 177.022 420.854 176.465C421.438 175.907 422.183 175.629 423.09 175.629C423.997 175.629 424.742 175.894 425.325 176.425C425.908 176.957 426.199 177.624 426.199 178.427C426.199 179.283 425.914 180.002 425.344 180.584C424.774 181.168 424.023 181.459 423.09 181.459Z" fill="#FF8D00"/>
<path d="M442.124 184.629C443.803 184.629 445.291 184.954 446.59 185.603C447.889 186.253 448.915 187.249 449.668 188.591C450.421 189.935 450.798 191.653 450.798 193.746V205.636H445.939V194.381C445.939 192.541 445.508 191.167 444.647 190.26C443.785 189.354 442.57 188.901 441 188.901C439.862 188.901 438.854 189.132 437.977 189.596C437.099 190.06 436.421 190.749 435.943 191.665C435.464 192.58 435.225 193.738 435.225 195.139V205.636H430.367V184.882H435.001V190.492L434.175 188.771C434.892 187.436 435.945 186.411 437.334 185.699C438.724 184.986 440.321 184.629 442.124 184.629Z" fill="#FF8D00"/>
<path d="M456.322 205.636V184.88H461.181V205.636H456.322ZM458.771 181.459C457.864 181.459 457.119 181.174 456.536 180.604C455.953 180.034 455.662 179.347 455.662 178.544C455.662 177.715 455.953 177.022 456.536 176.465C457.119 175.907 457.864 175.629 458.771 175.629C459.678 175.629 460.423 175.894 461.007 176.425C461.589 176.957 461.881 177.624 461.881 178.427C461.881 179.283 461.596 180.002 461.026 180.584C460.456 181.168 459.704 181.459 458.771 181.459Z" fill="#FF8D00"/>
<path d="M477.806 184.629C479.484 184.629 480.972 184.954 482.271 185.603C483.57 186.253 484.596 187.249 485.35 188.591C486.102 189.935 486.479 191.653 486.479 193.746V205.636H481.62V194.381C481.62 192.541 481.19 191.167 480.329 190.26C479.467 189.354 478.251 188.901 476.681 188.901C475.543 188.901 474.536 189.132 473.658 189.596C472.781 190.06 472.103 190.749 471.625 191.665C471.146 192.58 470.907 193.738 470.907 195.139V205.636H466.048V184.882H470.682V190.492L469.857 188.771C470.573 187.436 471.627 186.411 473.016 185.699C474.406 184.986 476.003 184.629 477.806 184.629Z" fill="#FF8D00"/>
<path d="M501.396 213.43C499.478 213.43 497.61 213.181 495.793 212.684C493.976 212.187 492.474 211.453 491.288 210.482L493.463 206.831C494.383 207.592 495.535 208.199 496.919 208.654C498.303 209.109 499.712 209.336 501.146 209.336C503.433 209.336 505.107 208.813 506.166 207.766C507.226 206.72 507.755 205.146 507.755 203.043V199.327L508.143 194.648L507.98 189.936V184.882H512.614V202.482C512.614 206.242 511.654 209.006 509.735 210.775C507.815 212.545 505.036 213.43 501.396 213.43ZM500.802 204.707C498.812 204.707 497.022 204.285 495.434 203.443C493.845 202.601 492.588 201.427 491.663 199.921C490.738 198.415 490.276 196.657 490.276 194.648C490.276 192.639 490.738 190.882 491.663 189.376C492.588 187.869 493.845 186.702 495.434 185.873C497.022 185.044 498.812 184.629 500.802 184.629C502.553 184.629 504.129 184.981 505.534 185.683C506.939 186.386 508.062 187.478 508.903 188.961C509.744 190.443 510.163 192.339 510.163 194.648C510.163 196.958 509.744 198.854 508.903 200.336C508.062 201.818 506.939 202.917 505.534 203.632C504.129 204.349 502.553 204.707 500.802 204.707ZM501.511 200.573C502.752 200.573 503.848 200.324 504.798 199.824C505.748 199.325 506.491 198.63 507.028 197.739C507.564 196.849 507.833 195.818 507.833 194.648C507.833 193.474 507.564 192.444 507.028 191.555C506.491 190.667 505.748 189.978 504.798 189.492C503.848 189.005 502.752 188.762 501.511 188.762C500.295 188.762 499.206 189.005 498.243 189.492C497.28 189.978 496.529 190.667 495.99 191.555C495.452 192.444 495.183 193.474 495.183 194.648C495.183 195.818 495.452 196.849 495.99 197.739C496.529 198.63 497.28 199.325 498.243 199.824C499.206 200.324 500.295 200.573 501.511 200.573Z" fill="#FF8D00"/>
</svg>
