<svg width="117" height="137" viewBox="0 0 117 137" fill="none" xmlns="http://www.w3.org/2000/svg">
<path d="M99.5988 107.251C101.12 109.682 102.03 112.72 102.03 114.544C102.03 116.974 101.116 118.797 99.9002 120.013C98.3785 121.228 95.9477 122.142 92.9091 122.142H24.2383C20.8935 122.142 18.1612 121.535 16.9458 120.319C16.6395 120.013 15.1227 118.797 15.1227 114.85C15.1227 113.027 16.3381 109.682 17.8598 107.251L38.2204 73.5209H79.243L99.5988 107.251ZM113.576 103.299C116.007 108.16 116.921 113.022 116.921 117.276C116.615 128.214 108.714 136.722 97.7757 136.722H19.9892C9.0505 136.722 0.542612 128.516 0.236328 117.276C0.236328 113.022 1.45174 108.16 3.88257 103.299L39.1295 44.0447V5.45296H34.2679V0.591309H82.8844V5.45296H78.0228V44.0447L113.576 103.299ZM43.9912 10.3195V15.1811H58.5761V10.3195H43.9912ZM43.9912 24.9044V29.7661H53.7145V24.9044H43.9912ZM43.9912 39.4894V44.351H58.5761V39.4894H43.9912ZM38.8281 54.0743L36.091 58.936H53.7145V54.0743H38.8233H38.8281ZM106.891 114.845C106.891 112.108 105.977 108.16 103.853 104.815L81.9753 68.6544H35.1819L13.6059 104.815C11.4765 108.16 10.2611 112.108 10.2611 114.845C10.2611 123.353 15.1227 126.999 24.2383 126.999H92.9091C102.025 126.999 106.59 122.137 106.891 114.845Z" fill="#E84300"/>
</svg>
