<svg width="144" height="131" viewBox="0 0 144 131" fill="none" xmlns="http://www.w3.org/2000/svg">
<path d="M139.739 107.232C145.829 108.25 143.122 121.108 138.044 120.431C138.044 120.431 130.936 120.772 116.724 116.37C116.724 116.37 111.311 122.802 103.525 126.521C94.7279 130.582 63.5981 137.69 36.8644 113.663C0.320801 80.8391 -3.7396 -6.11864 3.02774 0.984375C32.1273 31.4374 69.6887 16.8904 94.3868 36.8513C113 51.7395 124.163 79.8267 120.444 101.818C120.444 101.818 122.144 104.525 139.739 107.232ZM107.256 108.585C108.95 106.891 110.639 103.171 110.639 100.464C56.1595 82.8693 25.3708 46.3256 25.3708 46.3256C25.3708 46.3256 60.5609 94.7149 107.256 108.585Z" fill="#E84300"/>
</svg>
