<svg width="163" height="162" viewBox="0 0 163 162" fill="none" xmlns="http://www.w3.org/2000/svg">
<path d="M122.71 64.0113L135.449 77.4808C143.268 85.7482 142.904 98.804 134.637 106.623L91.3694 147.545C83.1019 155.364 70.0462 155 62.227 146.733L21.3055 103.465C13.4863 95.1979 13.8501 82.1421 22.1175 74.3229L35.3774 61.782C36.2627 60.9447 37.7309 60.937 38.6154 61.8722C39.4023 62.7043 39.4689 63.9214 38.838 64.8144C37.076 68.1581 35.7183 71.4095 34.8745 74.4775C34.7125 74.8262 34.5536 75.1782 34.2408 75.4741L28.4163 80.9828C23.8399 85.311 23.6369 92.5966 27.9652 97.173L68.8867 140.44C73.2149 145.017 80.5005 145.22 85.0769 140.892L128.344 99.9699C132.921 95.6417 133.124 88.3561 128.795 83.7797L118.269 72.65C117.681 72.0276 117.502 71.1121 117.778 70.2578C118.376 68.8032 118.673 67.2431 118.768 65.6773C118.794 64.7642 119.324 63.8716 120.195 63.5394C121.066 63.2072 122.074 63.339 122.713 64.0146L122.71 64.0113ZM110.639 26.5609L109.556 65.4174C109.573 66.6816 109.033 67.7846 108.151 68.6188C107.735 69.0122 107.168 69.3529 106.604 69.59C104.918 70.2008 102.953 69.7896 101.675 68.4383L92.2316 58.4535L83.9109 66.3231C72.4717 77.1421 67.2544 86.2129 67.5759 94.6797C67.936 103.501 74.0664 112.483 86.9938 122.918C87.7864 123.549 88.0098 124.719 87.6236 125.67C87.4643 125.922 87.3051 126.167 87.0988 126.362C86.5796 126.853 85.8115 127.088 85.1085 126.965C84.2547 126.788 64.9162 122.909 55.0793 112.508C41.8963 98.569 31.119 78.4203 65.0241 46.3535L73.3447 38.4839L63.9013 28.4991C62.6233 27.1479 62.3222 25.1627 63.0259 23.5134C63.294 22.9635 63.6657 22.4165 64.0818 22.023C64.9671 21.1857 66.1423 20.7616 67.3564 20.7986L106.213 21.8813C108.745 21.9519 110.712 24.032 110.639 26.5609Z" fill="#E84300"/>
</svg>
